<svg xmlns="http://www.w3.org/2000/svg" xmlns:xlink="http://www.w3.org/1999/xlink" width="695" zoomAndPan="magnify" viewBox="0 0 521.25 101.999999" height="136" preserveAspectRatio="xMidYMid meet" version="1.0"><defs><g/><clipPath id="1286eb150d"><path d="M 0 11.878906 L 86.875 11.878906 L 86.875 92.765625 L 0 92.765625 Z M 0 11.878906 " clip-rule="nonzero"/></clipPath></defs><g clip-path="url(#1286eb150d)"><path fill="#656d4a" d="M 26.59375 54.328125 C 29.730469 55.367188 32.894531 55.589844 36.066406 55.753906 C 36.964844 55.804688 37.292969 55.484375 37.289062 54.585938 C 37.257812 44.746094 37.265625 34.902344 37.242188 25.0625 C 37.226562 19.246094 33.871094 16.988281 29.210938 16.144531 C 26.21875 15.601562 23.191406 15.59375 20.167969 15.671875 C 19.101562 15.699219 18.773438 15.34375 18.804688 14.289062 C 18.878906 11.90625 18.835938 11.898438 21.191406 11.898438 C 36.777344 11.898438 52.359375 11.902344 67.945312 11.90625 C 69.527344 11.90625 69.53125 11.914062 69.535156 13.511719 C 69.539062 15.386719 69.539062 17.261719 69.539062 19.140625 C 69.539062 19.640625 69.574219 20.261719 68.839844 20.179688 C 68.074219 20.097656 67.089844 20.550781 66.648438 19.492188 C 66.488281 19.105469 66.472656 18.667969 66.351562 18.265625 C 66.070312 17.335938 65.542969 16.535156 64.570312 16.324219 C 60.5625 15.449219 56.65625 15.523438 53.101562 17.90625 C 51.308594 19.109375 50.515625 20.910156 50.457031 23.003906 C 50.382812 25.644531 50.398438 28.289062 50.398438 30.929688 C 50.394531 38.742188 50.425781 46.550781 50.390625 54.363281 C 50.382812 55.480469 50.746094 55.789062 51.835938 55.789062 C 55.003906 55.796875 58.097656 55.394531 61.09375 54.378906 C 67.234375 52.289062 70.71875 47.96875 71.671875 41.59375 C 72.390625 36.808594 72.136719 31.972656 72.386719 27.160156 C 72.550781 23.996094 72.667969 20.800781 73.964844 17.832031 C 75.503906 14.3125 78.324219 12.515625 82.0625 12.09375 C 83.351562 11.949219 84.660156 11.953125 85.957031 11.882812 C 86.527344 11.851562 86.804688 12.144531 86.878906 12.675781 C 86.949219 13.164062 87.148438 13.792969 86.511719 13.960938 C 83.4375 14.78125 83.019531 17.304688 82.910156 19.820312 C 82.765625 23.140625 82.855469 26.476562 82.945312 29.808594 C 83.070312 34.320312 83.136719 38.851562 82.304688 43.308594 C 80.882812 50.882812 76.226562 55.703125 69.152344 58.394531 C 64.070312 60.328125 58.753906 60.832031 53.378906 60.929688 C 50.425781 60.980469 50.421875 60.953125 50.421875 63.949219 C 50.421875 69.921875 50.375 75.894531 50.445312 81.867188 C 50.496094 86.171875 52.496094 88.46875 56.710938 89.421875 C 58.097656 89.738281 59.515625 89.871094 60.917969 89.921875 C 62.246094 89.972656 62.109375 90.769531 62.144531 91.621094 C 62.191406 92.710938 61.464844 92.617188 60.757812 92.617188 C 50.878906 92.617188 41 92.617188 31.121094 92.621094 C 29.667969 92.621094 28.210938 92.609375 26.757812 92.644531 C 26.027344 92.660156 25.492188 92.457031 25.605469 91.636719 C 25.703125 90.949219 25.328125 89.984375 26.691406 89.9375 C 28.25 89.882812 29.804688 89.652344 31.339844 89.300781 C 34.910156 88.488281 37.074219 86.023438 37.199219 82.332031 C 37.308594 79.082031 37.277344 75.824219 37.28125 72.570312 C 37.289062 69.085938 37.238281 65.601562 37.277344 62.117188 C 37.289062 61.066406 36.914062 60.714844 35.878906 60.699219 C 32.28125 60.648438 28.691406 60.453125 25.117188 60.015625 C 21.679688 59.59375 18.332031 58.789062 15.234375 57.207031 C 9.066406 54.058594 5.824219 48.875 5.058594 42.085938 C 4.339844 35.714844 4.640625 29.320312 4.78125 22.933594 C 4.820312 21.207031 4.710938 19.492188 4.40625 17.792969 C 4.085938 15.980469 3.09375 14.691406 1.347656 14.105469 C 0.46875 13.8125 0.355469 13.265625 0.480469 12.519531 C 0.613281 11.734375 1.238281 11.882812 1.75 11.90625 C 3.238281 11.976562 4.75 11.949219 6.210938 12.199219 C 10.6875 12.957031 13.527344 16.035156 14.382812 20.792969 C 15.367188 26.25 15.160156 31.765625 15.320312 37.269531 C 15.410156 40.292969 15.707031 43.308594 16.949219 46.128906 C 18.820312 50.378906 22.222656 52.863281 26.59375 54.328125 Z M 26.59375 54.328125 " fill-opacity="1" fill-rule="nonzero"/></g><g fill="#656d4a" fill-opacity="1"><g transform="translate(102.977215, 44.583233)"><g><path d="M 1.6875 0 L 1.6875 -0.5 C 2.289062 -0.695312 2.679688 -1.097656 2.859375 -1.703125 C 3.035156 -2.316406 3.125 -3.269531 3.125 -4.5625 L 3.125 -20.59375 C 3.125 -21.894531 3.035156 -22.847656 2.859375 -23.453125 C 2.679688 -24.066406 2.289062 -24.46875 1.6875 -24.65625 L 1.6875 -25.171875 L 10.671875 -25.171875 C 13.265625 -25.171875 15.441406 -24.796875 17.203125 -24.046875 C 18.960938 -23.304688 20.367188 -22.332031 21.421875 -21.125 C 22.484375 -19.914062 23.253906 -18.601562 23.734375 -17.1875 C 24.210938 -15.769531 24.453125 -14.40625 24.453125 -13.09375 C 24.472656 -10.5 23.945312 -8.21875 22.875 -6.25 C 21.8125 -4.289062 20.300781 -2.757812 18.34375 -1.65625 C 16.394531 -0.550781 14.101562 0 11.46875 0 Z M 6.9375 -3.203125 C 6.9375 -2.359375 7.078125 -1.707031 7.359375 -1.25 C 7.648438 -0.800781 8.289062 -0.578125 9.28125 -0.578125 L 11.21875 -0.578125 C 14.113281 -0.578125 16.332031 -1.410156 17.875 -3.078125 C 19.425781 -4.742188 20.203125 -7.492188 20.203125 -11.328125 C 20.203125 -13.796875 19.769531 -16.03125 18.90625 -18.03125 C 18.039062 -20.03125 16.738281 -21.625 15 -22.8125 C 13.269531 -24 11.0625 -24.59375 8.375 -24.59375 L 6.9375 -24.59375 Z M 6.9375 -3.203125 "/></g></g></g><g fill="#656d4a" fill-opacity="1"><g transform="translate(129.255459, 44.583233)"><g><path d="M 10.71875 0.359375 C 9.539062 0.359375 8.378906 0.1875 7.234375 -0.15625 C 6.097656 -0.507812 5.066406 -1.050781 4.140625 -1.78125 C 3.222656 -2.507812 2.488281 -3.429688 1.9375 -4.546875 C 1.382812 -5.660156 1.109375 -6.984375 1.109375 -8.515625 C 1.109375 -9.984375 1.375 -11.304688 1.90625 -12.484375 C 2.4375 -13.671875 3.15625 -14.691406 4.0625 -15.546875 C 4.96875 -16.398438 5.992188 -17.0625 7.140625 -17.53125 C 8.296875 -18 9.488281 -18.234375 10.71875 -18.234375 C 11.84375 -18.234375 12.960938 -18.0625 14.078125 -17.71875 C 15.191406 -17.382812 16.222656 -16.851562 17.171875 -16.125 C 18.117188 -15.394531 18.875 -14.46875 19.4375 -13.34375 C 20 -12.21875 20.28125 -10.863281 20.28125 -9.28125 C 20.28125 -7.738281 19.984375 -6.367188 19.390625 -5.171875 C 18.804688 -3.972656 18.039062 -2.96875 17.09375 -2.15625 C 16.144531 -1.34375 15.109375 -0.71875 13.984375 -0.28125 C 12.859375 0.144531 11.769531 0.359375 10.71875 0.359375 Z M 4.703125 -11.21875 C 4.703125 -10.164062 4.859375 -9.015625 5.171875 -7.765625 C 5.484375 -6.515625 5.945312 -5.332031 6.5625 -4.21875 C 7.175781 -3.101562 7.9375 -2.191406 8.84375 -1.484375 C 9.75 -0.785156 10.789062 -0.4375 11.96875 -0.4375 C 13.144531 -0.4375 14.070312 -0.734375 14.75 -1.328125 C 15.4375 -1.929688 15.921875 -2.695312 16.203125 -3.625 C 16.492188 -4.5625 16.640625 -5.535156 16.640625 -6.546875 C 16.640625 -7.691406 16.453125 -8.914062 16.078125 -10.21875 C 15.710938 -11.53125 15.1875 -12.757812 14.5 -13.90625 C 13.820312 -15.0625 13.003906 -15.976562 12.046875 -16.65625 C 11.085938 -17.34375 10.03125 -17.628906 8.875 -17.515625 C 7.84375 -17.410156 7.019531 -17.050781 6.40625 -16.4375 C 5.800781 -15.832031 5.363281 -15.066406 5.09375 -14.140625 C 4.832031 -13.222656 4.703125 -12.25 4.703125 -11.21875 Z M 4.703125 -11.21875 "/></g></g></g><g fill="#656d4a" fill-opacity="1"><g transform="translate(151.004206, 44.583233)"><g><path d="M 6.765625 0.359375 C 5.535156 0.359375 4.601562 -0.0546875 3.96875 -0.890625 C 3.332031 -1.734375 3.015625 -3.125 3.015625 -5.0625 L 3.015625 -17.40625 L 0.71875 -17.40625 L 0.71875 -17.96875 L 6.109375 -22.71875 L 6.6875 -22.71875 L 6.6875 -17.96875 L 12.265625 -17.96875 L 12.109375 -17.40625 L 6.6875 -17.40625 L 6.6875 -5.03125 C 6.6875 -3.925781 6.890625 -3.113281 7.296875 -2.59375 C 7.703125 -2.082031 8.300781 -1.828125 9.09375 -1.828125 C 9.5 -1.828125 9.984375 -1.941406 10.546875 -2.171875 C 11.109375 -2.398438 11.691406 -2.882812 12.296875 -3.625 L 12.65625 -3.265625 C 11.695312 -2.171875 10.742188 -1.289062 9.796875 -0.625 C 8.847656 0.03125 7.835938 0.359375 6.765625 0.359375 Z M 6.765625 0.359375 "/></g></g></g><g fill="#656d4a" fill-opacity="1"><g transform="translate(163.801812, 44.583233)"><g><path d="M 6.765625 0.359375 C 5.535156 0.359375 4.601562 -0.0546875 3.96875 -0.890625 C 3.332031 -1.734375 3.015625 -3.125 3.015625 -5.0625 L 3.015625 -17.40625 L 0.71875 -17.40625 L 0.71875 -17.96875 L 6.109375 -22.71875 L 6.6875 -22.71875 L 6.6875 -17.96875 L 12.265625 -17.96875 L 12.109375 -17.40625 L 6.6875 -17.40625 L 6.6875 -5.03125 C 6.6875 -3.925781 6.890625 -3.113281 7.296875 -2.59375 C 7.703125 -2.082031 8.300781 -1.828125 9.09375 -1.828125 C 9.5 -1.828125 9.984375 -1.941406 10.546875 -2.171875 C 11.109375 -2.398438 11.691406 -2.882812 12.296875 -3.625 L 12.65625 -3.265625 C 11.695312 -2.171875 10.742188 -1.289062 9.796875 -0.625 C 8.847656 0.03125 7.835938 0.359375 6.765625 0.359375 Z M 6.765625 0.359375 "/></g></g></g><g fill="#656d4a" fill-opacity="1"><g transform="translate(176.599419, 44.583233)"><g><path d="M 4.09375 0.25 C 3.519531 0.25 3.023438 0.0351562 2.609375 -0.390625 C 2.191406 -0.828125 1.984375 -1.34375 1.984375 -1.9375 C 1.984375 -2.539062 2.191406 -3.050781 2.609375 -3.46875 C 3.023438 -3.882812 3.519531 -4.09375 4.09375 -4.09375 C 4.675781 -4.09375 5.171875 -3.882812 5.578125 -3.46875 C 5.984375 -3.050781 6.1875 -2.539062 6.1875 -1.9375 C 6.1875 -1.34375 5.984375 -0.828125 5.578125 -0.390625 C 5.171875 0.0351562 4.675781 0.25 4.09375 0.25 Z M 4.09375 0.25 "/></g></g></g><g fill="#656d4a" fill-opacity="1"><g transform="translate(184.759697, 44.583233)"><g><path d="M 7.953125 0.28125 C 6.628906 0.28125 5.390625 0.113281 4.234375 -0.21875 C 3.085938 -0.550781 2.164062 -0.945312 1.46875 -1.40625 L 1.109375 -6.109375 L 1.46875 -6.1875 C 2.238281 -4.457031 3.253906 -3.046875 4.515625 -1.953125 C 5.773438 -0.867188 7.207031 -0.3125 8.8125 -0.28125 C 9.9375 -0.257812 10.828125 -0.566406 11.484375 -1.203125 C 12.140625 -1.835938 12.46875 -2.5625 12.46875 -3.375 C 12.46875 -4.53125 12.03125 -5.394531 11.15625 -5.96875 C 10.28125 -6.539062 9.066406 -7.066406 7.515625 -7.546875 C 6.265625 -7.929688 5.175781 -8.332031 4.25 -8.75 C 3.332031 -9.175781 2.628906 -9.71875 2.140625 -10.375 C 1.648438 -11.03125 1.40625 -11.898438 1.40625 -12.984375 C 1.40625 -13.890625 1.648438 -14.742188 2.140625 -15.546875 C 2.628906 -16.347656 3.390625 -16.992188 4.421875 -17.484375 C 5.453125 -17.984375 6.78125 -18.234375 8.40625 -18.234375 C 9.4375 -18.234375 10.457031 -18.144531 11.46875 -17.96875 C 12.476562 -17.800781 13.28125 -17.585938 13.875 -17.328125 L 14.0625 -13.375 L 13.625 -13.296875 C 13.03125 -14.566406 12.195312 -15.617188 11.125 -16.453125 C 10.0625 -17.296875 8.867188 -17.71875 7.546875 -17.71875 C 6.421875 -17.71875 5.515625 -17.453125 4.828125 -16.921875 C 4.148438 -16.398438 3.8125 -15.757812 3.8125 -15 C 3.8125 -13.988281 4.25 -13.210938 5.125 -12.671875 C 6 -12.128906 7.238281 -11.582031 8.84375 -11.03125 C 9.800781 -10.71875 10.738281 -10.367188 11.65625 -9.984375 C 12.582031 -9.609375 13.351562 -9.078125 13.96875 -8.390625 C 14.582031 -7.710938 14.890625 -6.757812 14.890625 -5.53125 C 14.890625 -4.625 14.671875 -3.71875 14.234375 -2.8125 C 13.804688 -1.914062 13.085938 -1.175781 12.078125 -0.59375 C 11.066406 -0.0078125 9.691406 0.28125 7.953125 0.28125 Z M 7.953125 0.28125 "/></g></g></g><g fill="#656d4a" fill-opacity="1"><g transform="translate(200.864557, 44.583233)"><g><path d="M 7.953125 0.28125 C 6.628906 0.28125 5.390625 0.113281 4.234375 -0.21875 C 3.085938 -0.550781 2.164062 -0.945312 1.46875 -1.40625 L 1.109375 -6.109375 L 1.46875 -6.1875 C 2.238281 -4.457031 3.253906 -3.046875 4.515625 -1.953125 C 5.773438 -0.867188 7.207031 -0.3125 8.8125 -0.28125 C 9.9375 -0.257812 10.828125 -0.566406 11.484375 -1.203125 C 12.140625 -1.835938 12.46875 -2.5625 12.46875 -3.375 C 12.46875 -4.53125 12.03125 -5.394531 11.15625 -5.96875 C 10.28125 -6.539062 9.066406 -7.066406 7.515625 -7.546875 C 6.265625 -7.929688 5.175781 -8.332031 4.25 -8.75 C 3.332031 -9.175781 2.628906 -9.71875 2.140625 -10.375 C 1.648438 -11.03125 1.40625 -11.898438 1.40625 -12.984375 C 1.40625 -13.890625 1.648438 -14.742188 2.140625 -15.546875 C 2.628906 -16.347656 3.390625 -16.992188 4.421875 -17.484375 C 5.453125 -17.984375 6.78125 -18.234375 8.40625 -18.234375 C 9.4375 -18.234375 10.457031 -18.144531 11.46875 -17.96875 C 12.476562 -17.800781 13.28125 -17.585938 13.875 -17.328125 L 14.0625 -13.375 L 13.625 -13.296875 C 13.03125 -14.566406 12.195312 -15.617188 11.125 -16.453125 C 10.0625 -17.296875 8.867188 -17.71875 7.546875 -17.71875 C 6.421875 -17.71875 5.515625 -17.453125 4.828125 -16.921875 C 4.148438 -16.398438 3.8125 -15.757812 3.8125 -15 C 3.8125 -13.988281 4.25 -13.210938 5.125 -12.671875 C 6 -12.128906 7.238281 -11.582031 8.84375 -11.03125 C 9.800781 -10.71875 10.738281 -10.367188 11.65625 -9.984375 C 12.582031 -9.609375 13.351562 -9.078125 13.96875 -8.390625 C 14.582031 -7.710938 14.890625 -6.757812 14.890625 -5.53125 C 14.890625 -4.625 14.671875 -3.71875 14.234375 -2.8125 C 13.804688 -1.914062 13.085938 -1.175781 12.078125 -0.59375 C 11.066406 -0.0078125 9.691406 0.28125 7.953125 0.28125 Z M 7.953125 0.28125 "/></g></g></g><g fill="#656d4a" fill-opacity="1"><g transform="translate(216.969417, 44.583233)"><g><path d="M 14.734375 0 C 13.773438 0 13.296875 -0.476562 13.296875 -1.4375 L 13.296875 -7.375 C 12.960938 -5.976562 12.457031 -4.691406 11.78125 -3.515625 C 11.113281 -2.347656 10.289062 -1.410156 9.3125 -0.703125 C 8.332031 0.00390625 7.21875 0.359375 5.96875 0.359375 C 4.644531 0.359375 3.5 -0.046875 2.53125 -0.859375 C 1.5625 -1.671875 1.078125 -2.832031 1.078125 -4.34375 C 1.078125 -5.59375 1.453125 -6.609375 2.203125 -7.390625 C 2.960938 -8.171875 3.960938 -8.820312 5.203125 -9.34375 C 6.453125 -9.875 7.820312 -10.34375 9.3125 -10.75 L 13.296875 -11.90625 C 13.273438 -13.675781 12.828125 -14.9375 11.953125 -15.6875 C 11.078125 -16.445312 9.96875 -16.828125 8.625 -16.828125 C 7.625 -16.828125 6.628906 -16.59375 5.640625 -16.125 C 4.660156 -15.65625 3.710938 -14.867188 2.796875 -13.765625 L 2.4375 -14.09375 C 3.445312 -15.34375 4.632812 -16.34375 6 -17.09375 C 7.363281 -17.851562 8.863281 -18.234375 10.5 -18.234375 C 12.675781 -18.234375 14.285156 -17.660156 15.328125 -16.515625 C 16.367188 -15.378906 16.890625 -13.707031 16.890625 -11.5 L 16.890625 -4.5625 C 16.890625 -3.269531 16.976562 -2.316406 17.15625 -1.703125 C 17.34375 -1.097656 17.738281 -0.695312 18.34375 -0.5 L 18.34375 0 Z M 4.421875 -5.609375 C 4.421875 -4.429688 4.773438 -3.578125 5.484375 -3.046875 C 6.191406 -2.523438 6.953125 -2.265625 7.765625 -2.265625 C 8.648438 -2.265625 9.429688 -2.535156 10.109375 -3.078125 C 10.796875 -3.617188 11.375 -4.3125 11.84375 -5.15625 C 12.3125 -6.007812 12.671875 -6.898438 12.921875 -7.828125 C 13.171875 -8.765625 13.296875 -9.644531 13.296875 -10.46875 L 13.296875 -11.390625 L 9.453125 -10.28125 C 9.023438 -10.164062 8.53125 -9.992188 7.96875 -9.765625 C 7.40625 -9.535156 6.851562 -9.238281 6.3125 -8.875 C 5.769531 -8.519531 5.316406 -8.070312 4.953125 -7.53125 C 4.597656 -6.988281 4.421875 -6.347656 4.421875 -5.609375 Z M 4.421875 -5.609375 "/></g></g></g><g fill="#656d4a" fill-opacity="1"><g transform="translate(236.022038, 44.583233)"><g/></g></g><g fill="#656d4a" fill-opacity="1"><g transform="translate(243.211709, 44.583233)"><g><path d="M -0.75 0 L -0.75 -0.5 C -0.195312 -0.695312 0.320312 -1.066406 0.8125 -1.609375 C 1.300781 -2.160156 1.785156 -3.039062 2.265625 -4.25 L 8.984375 -20.921875 C 9.253906 -21.597656 9.234375 -22.242188 8.921875 -22.859375 L 8.453125 -23.875 L 11.96875 -25.453125 L 20.890625 -4.203125 C 21.390625 -3.023438 21.875 -2.160156 22.34375 -1.609375 C 22.8125 -1.066406 23.25 -0.695312 23.65625 -0.5 L 23.65625 0 L 17.109375 0 L 17.109375 -0.5 C 17.710938 -0.695312 17.9375 -1.066406 17.78125 -1.609375 C 17.625 -2.160156 17.296875 -3.023438 16.796875 -4.203125 L 14.640625 -9.390625 L 5.03125 -9.390625 L 2.953125 -4.25 C 2.472656 -3.039062 2.28125 -2.148438 2.375 -1.578125 C 2.46875 -1.003906 2.816406 -0.644531 3.421875 -0.5 L 3.421875 0 Z M 5.25 -9.953125 L 14.375 -9.953125 L 9.75 -21.0625 Z M 5.25 -9.953125 "/></g></g></g><g fill="#656d4a" fill-opacity="1"><g transform="translate(266.326494, 44.583233)"><g><path d="M 1 0 L 1 -0.5 C 1.601562 -0.695312 1.992188 -1.097656 2.171875 -1.703125 C 2.347656 -2.316406 2.4375 -3.269531 2.4375 -4.5625 L 2.4375 -12.828125 C 2.4375 -13.890625 2.3125 -14.585938 2.0625 -14.921875 C 1.8125 -15.253906 1.457031 -15.519531 1 -15.71875 L 1 -16.21875 L 5.75 -18.296875 L 6.109375 -18.015625 L 6.109375 -15 C 7.097656 -15.8125 8.222656 -16.550781 9.484375 -17.21875 C 10.753906 -17.894531 12.085938 -18.234375 13.484375 -18.234375 C 15.140625 -18.234375 16.472656 -17.769531 17.484375 -16.84375 C 18.503906 -15.914062 19.015625 -14.398438 19.015625 -12.296875 L 19.015625 -4.5625 C 19.015625 -3.269531 19.101562 -2.316406 19.28125 -1.703125 C 19.46875 -1.097656 19.859375 -0.695312 20.453125 -0.5 L 20.453125 0 L 13.90625 0 L 13.90625 -0.5 C 14.507812 -0.695312 14.898438 -1.097656 15.078125 -1.703125 C 15.265625 -2.316406 15.359375 -3.269531 15.359375 -4.5625 L 15.359375 -11.65625 C 15.359375 -13.28125 15.015625 -14.539062 14.328125 -15.4375 C 13.640625 -16.34375 12.628906 -16.796875 11.296875 -16.796875 C 10.453125 -16.796875 9.625 -16.585938 8.8125 -16.171875 C 8 -15.765625 7.097656 -15.164062 6.109375 -14.375 L 6.109375 -4.5625 C 6.109375 -3.269531 6.195312 -2.316406 6.375 -1.703125 C 6.5625 -1.097656 6.953125 -0.695312 7.546875 -0.5 L 7.546875 0 Z M 1 0 "/></g></g></g><g fill="#656d4a" fill-opacity="1"><g transform="translate(287.500075, 44.583233)"><g><path d="M 6.765625 0.359375 C 5.535156 0.359375 4.601562 -0.0546875 3.96875 -0.890625 C 3.332031 -1.734375 3.015625 -3.125 3.015625 -5.0625 L 3.015625 -17.40625 L 0.71875 -17.40625 L 0.71875 -17.96875 L 6.109375 -22.71875 L 6.6875 -22.71875 L 6.6875 -17.96875 L 12.265625 -17.96875 L 12.109375 -17.40625 L 6.6875 -17.40625 L 6.6875 -5.03125 C 6.6875 -3.925781 6.890625 -3.113281 7.296875 -2.59375 C 7.703125 -2.082031 8.300781 -1.828125 9.09375 -1.828125 C 9.5 -1.828125 9.984375 -1.941406 10.546875 -2.171875 C 11.109375 -2.398438 11.691406 -2.882812 12.296875 -3.625 L 12.65625 -3.265625 C 11.695312 -2.171875 10.742188 -1.289062 9.796875 -0.625 C 8.847656 0.03125 7.835938 0.359375 6.765625 0.359375 Z M 6.765625 0.359375 "/></g></g></g><g fill="#656d4a" fill-opacity="1"><g transform="translate(299.8663, 44.583233)"><g><path d="M 10.71875 0.359375 C 9.539062 0.359375 8.378906 0.1875 7.234375 -0.15625 C 6.097656 -0.507812 5.066406 -1.050781 4.140625 -1.78125 C 3.222656 -2.507812 2.488281 -3.429688 1.9375 -4.546875 C 1.382812 -5.660156 1.109375 -6.984375 1.109375 -8.515625 C 1.109375 -9.984375 1.375 -11.304688 1.90625 -12.484375 C 2.4375 -13.671875 3.15625 -14.691406 4.0625 -15.546875 C 4.96875 -16.398438 5.992188 -17.0625 7.140625 -17.53125 C 8.296875 -18 9.488281 -18.234375 10.71875 -18.234375 C 11.84375 -18.234375 12.960938 -18.0625 14.078125 -17.71875 C 15.191406 -17.382812 16.222656 -16.851562 17.171875 -16.125 C 18.117188 -15.394531 18.875 -14.46875 19.4375 -13.34375 C 20 -12.21875 20.28125 -10.863281 20.28125 -9.28125 C 20.28125 -7.738281 19.984375 -6.367188 19.390625 -5.171875 C 18.804688 -3.972656 18.039062 -2.96875 17.09375 -2.15625 C 16.144531 -1.34375 15.109375 -0.71875 13.984375 -0.28125 C 12.859375 0.144531 11.769531 0.359375 10.71875 0.359375 Z M 4.703125 -11.21875 C 4.703125 -10.164062 4.859375 -9.015625 5.171875 -7.765625 C 5.484375 -6.515625 5.945312 -5.332031 6.5625 -4.21875 C 7.175781 -3.101562 7.9375 -2.191406 8.84375 -1.484375 C 9.75 -0.785156 10.789062 -0.4375 11.96875 -0.4375 C 13.144531 -0.4375 14.070312 -0.734375 14.75 -1.328125 C 15.4375 -1.929688 15.921875 -2.695312 16.203125 -3.625 C 16.492188 -4.5625 16.640625 -5.535156 16.640625 -6.546875 C 16.640625 -7.691406 16.453125 -8.914062 16.078125 -10.21875 C 15.710938 -11.53125 15.1875 -12.757812 14.5 -13.90625 C 13.820312 -15.0625 13.003906 -15.976562 12.046875 -16.65625 C 11.085938 -17.34375 10.03125 -17.628906 8.875 -17.515625 C 7.84375 -17.410156 7.019531 -17.050781 6.40625 -16.4375 C 5.800781 -15.832031 5.363281 -15.066406 5.09375 -14.140625 C 4.832031 -13.222656 4.703125 -12.25 4.703125 -11.21875 Z M 4.703125 -11.21875 "/></g></g></g><g fill="#656d4a" fill-opacity="1"><g transform="translate(321.615058, 44.583233)"><g><path d="M 1 0 L 1 -0.5 C 1.601562 -0.695312 1.992188 -1.097656 2.171875 -1.703125 C 2.347656 -2.316406 2.4375 -3.269531 2.4375 -4.5625 L 2.4375 -12.828125 C 2.4375 -13.890625 2.3125 -14.585938 2.0625 -14.921875 C 1.8125 -15.253906 1.457031 -15.519531 1 -15.71875 L 1 -16.21875 L 5.75 -18.296875 L 6.109375 -18.015625 L 6.109375 -15 C 7.097656 -15.8125 8.222656 -16.550781 9.484375 -17.21875 C 10.753906 -17.894531 12.085938 -18.234375 13.484375 -18.234375 C 15.140625 -18.234375 16.472656 -17.769531 17.484375 -16.84375 C 18.503906 -15.914062 19.015625 -14.398438 19.015625 -12.296875 L 19.015625 -4.5625 C 19.015625 -3.269531 19.101562 -2.316406 19.28125 -1.703125 C 19.46875 -1.097656 19.859375 -0.695312 20.453125 -0.5 L 20.453125 0 L 13.90625 0 L 13.90625 -0.5 C 14.507812 -0.695312 14.898438 -1.097656 15.078125 -1.703125 C 15.265625 -2.316406 15.359375 -3.269531 15.359375 -4.5625 L 15.359375 -11.65625 C 15.359375 -13.28125 15.015625 -14.539062 14.328125 -15.4375 C 13.640625 -16.34375 12.628906 -16.796875 11.296875 -16.796875 C 10.453125 -16.796875 9.625 -16.585938 8.8125 -16.171875 C 8 -15.765625 7.097656 -15.164062 6.109375 -14.375 L 6.109375 -4.5625 C 6.109375 -3.269531 6.195312 -2.316406 6.375 -1.703125 C 6.5625 -1.097656 6.953125 -0.695312 7.546875 -0.5 L 7.546875 0 Z M 1 0 "/></g></g></g><g fill="#656d4a" fill-opacity="1"><g transform="translate(342.78864, 44.583233)"><g><path d="M 9.640625 0.359375 C 8.628906 0.359375 7.625 0.179688 6.625 -0.171875 C 5.632812 -0.535156 4.71875 -1.078125 3.875 -1.796875 C 3.039062 -2.515625 2.367188 -3.410156 1.859375 -4.484375 C 1.359375 -5.566406 1.109375 -6.84375 1.109375 -8.3125 C 1.109375 -9.84375 1.378906 -11.21875 1.921875 -12.4375 C 2.460938 -13.65625 3.1875 -14.695312 4.09375 -15.5625 C 5.007812 -16.425781 6.023438 -17.085938 7.140625 -17.546875 C 8.253906 -18.003906 9.394531 -18.234375 10.5625 -18.234375 C 12.195312 -18.234375 13.566406 -17.90625 14.671875 -17.25 C 15.773438 -16.601562 16.609375 -15.789062 17.171875 -14.8125 C 17.734375 -13.832031 18.015625 -12.8125 18.015625 -11.75 L 4.390625 -11.75 C 4.359375 -11.5625 4.335938 -11.367188 4.328125 -11.171875 C 4.316406 -10.984375 4.3125 -10.796875 4.3125 -10.609375 C 4.3125 -9.046875 4.613281 -7.65625 5.21875 -6.4375 C 5.832031 -5.21875 6.695312 -4.265625 7.8125 -3.578125 C 8.925781 -2.890625 10.238281 -2.546875 11.75 -2.546875 C 13.09375 -2.546875 14.28125 -2.8125 15.3125 -3.34375 C 16.34375 -3.875 17.226562 -4.554688 17.96875 -5.390625 L 18.296875 -5.03125 C 17.742188 -4.195312 17.0625 -3.363281 16.25 -2.53125 C 15.4375 -1.707031 14.476562 -1.019531 13.375 -0.46875 C 12.269531 0.0820312 11.023438 0.359375 9.640625 0.359375 Z M 4.421875 -12.265625 L 14.375 -12.265625 C 14.238281 -13.242188 13.9375 -14.132812 13.46875 -14.9375 C 13 -15.738281 12.421875 -16.378906 11.734375 -16.859375 C 11.054688 -17.335938 10.296875 -17.578125 9.453125 -17.578125 C 8.453125 -17.597656 7.601562 -17.359375 6.90625 -16.859375 C 6.207031 -16.359375 5.65625 -15.695312 5.25 -14.875 C 4.84375 -14.0625 4.566406 -13.191406 4.421875 -12.265625 Z M 4.421875 -12.265625 "/></g></g></g><g fill="#656d4a" fill-opacity="1"><g transform="translate(361.625587, 44.583233)"><g><path d="M 1.078125 0 L 1.078125 -0.5 C 1.679688 -0.695312 2.070312 -1.097656 2.25 -1.703125 C 2.425781 -2.316406 2.515625 -3.269531 2.515625 -4.5625 L 2.515625 -23.625 C 2.515625 -24.675781 2.390625 -25.367188 2.140625 -25.703125 C 1.890625 -26.035156 1.535156 -26.300781 1.078125 -26.5 L 1.078125 -27 L 5.828125 -29.09375 L 6.1875 -28.796875 L 6.1875 -4.5625 C 6.1875 -3.269531 6.273438 -2.316406 6.453125 -1.703125 C 6.628906 -1.097656 7.019531 -0.695312 7.625 -0.5 L 7.625 0 Z M 1.078125 0 "/></g></g></g><g fill="#656d4a" fill-opacity="1"><g transform="translate(370.468896, 44.583233)"><g><path d="M 1.078125 0 L 1.078125 -0.5 C 1.679688 -0.695312 2.070312 -1.097656 2.25 -1.703125 C 2.425781 -2.316406 2.515625 -3.269531 2.515625 -4.5625 L 2.515625 -23.625 C 2.515625 -24.675781 2.390625 -25.367188 2.140625 -25.703125 C 1.890625 -26.035156 1.535156 -26.300781 1.078125 -26.5 L 1.078125 -27 L 5.828125 -29.09375 L 6.1875 -28.796875 L 6.1875 -4.5625 C 6.1875 -3.269531 6.273438 -2.316406 6.453125 -1.703125 C 6.628906 -1.097656 7.019531 -0.695312 7.625 -0.5 L 7.625 0 Z M 1.078125 0 "/></g></g></g><g fill="#656d4a" fill-opacity="1"><g transform="translate(379.312204, 44.583233)"><g><path d="M 14.734375 0 C 13.773438 0 13.296875 -0.476562 13.296875 -1.4375 L 13.296875 -7.375 C 12.960938 -5.976562 12.457031 -4.691406 11.78125 -3.515625 C 11.113281 -2.347656 10.289062 -1.410156 9.3125 -0.703125 C 8.332031 0.00390625 7.21875 0.359375 5.96875 0.359375 C 4.644531 0.359375 3.5 -0.046875 2.53125 -0.859375 C 1.5625 -1.671875 1.078125 -2.832031 1.078125 -4.34375 C 1.078125 -5.59375 1.453125 -6.609375 2.203125 -7.390625 C 2.960938 -8.171875 3.960938 -8.820312 5.203125 -9.34375 C 6.453125 -9.875 7.820312 -10.34375 9.3125 -10.75 L 13.296875 -11.90625 C 13.273438 -13.675781 12.828125 -14.9375 11.953125 -15.6875 C 11.078125 -16.445312 9.96875 -16.828125 8.625 -16.828125 C 7.625 -16.828125 6.628906 -16.59375 5.640625 -16.125 C 4.660156 -15.65625 3.710938 -14.867188 2.796875 -13.765625 L 2.4375 -14.09375 C 3.445312 -15.34375 4.632812 -16.34375 6 -17.09375 C 7.363281 -17.851562 8.863281 -18.234375 10.5 -18.234375 C 12.675781 -18.234375 14.285156 -17.660156 15.328125 -16.515625 C 16.367188 -15.378906 16.890625 -13.707031 16.890625 -11.5 L 16.890625 -4.5625 C 16.890625 -3.269531 16.976562 -2.316406 17.15625 -1.703125 C 17.34375 -1.097656 17.738281 -0.695312 18.34375 -0.5 L 18.34375 0 Z M 4.421875 -5.609375 C 4.421875 -4.429688 4.773438 -3.578125 5.484375 -3.046875 C 6.191406 -2.523438 6.953125 -2.265625 7.765625 -2.265625 C 8.648438 -2.265625 9.429688 -2.535156 10.109375 -3.078125 C 10.796875 -3.617188 11.375 -4.3125 11.84375 -5.15625 C 12.3125 -6.007812 12.671875 -6.898438 12.921875 -7.828125 C 13.171875 -8.765625 13.296875 -9.644531 13.296875 -10.46875 L 13.296875 -11.390625 L 9.453125 -10.28125 C 9.023438 -10.164062 8.53125 -9.992188 7.96875 -9.765625 C 7.40625 -9.535156 6.851562 -9.238281 6.3125 -8.875 C 5.769531 -8.519531 5.316406 -8.070312 4.953125 -7.53125 C 4.597656 -6.988281 4.421875 -6.347656 4.421875 -5.609375 Z M 4.421875 -5.609375 "/></g></g></g><g fill="#656d4a" fill-opacity="1"><g transform="translate(398.364837, 44.583233)"><g/></g></g><g fill="#656d4a" fill-opacity="1"><g transform="translate(405.554519, 44.583233)"><g><path d="M 6.765625 0 L 6.765625 -0.5 C 7.359375 -0.695312 7.742188 -1.097656 7.921875 -1.703125 C 8.109375 -2.316406 8.203125 -3.269531 8.203125 -4.5625 L 8.203125 -24.515625 L 7.078125 -24.515625 C 5.472656 -24.515625 4.210938 -24.242188 3.296875 -23.703125 C 2.390625 -23.171875 1.601562 -22.1875 0.9375 -20.75 L 0.5 -20.8125 L 0.71875 -25.171875 L 19.453125 -25.171875 L 19.671875 -20.8125 L 19.234375 -20.75 C 18.566406 -22.1875 17.773438 -23.171875 16.859375 -23.703125 C 15.953125 -24.242188 14.695312 -24.515625 13.09375 -24.515625 L 12.046875 -24.515625 L 12.046875 -4.5625 C 12.046875 -3.269531 12.132812 -2.316406 12.3125 -1.703125 C 12.488281 -1.097656 12.878906 -0.695312 13.484375 -0.5 L 13.484375 0 Z M 6.765625 0 "/></g></g></g><g fill="#656d4a" fill-opacity="1"><g transform="translate(424.247661, 44.583233)"><g><path d="M 1 0 L 1 -0.5 C 1.601562 -0.695312 1.992188 -1.097656 2.171875 -1.703125 C 2.347656 -2.316406 2.4375 -3.269531 2.4375 -4.5625 L 2.4375 -12.828125 C 2.4375 -13.890625 2.3125 -14.585938 2.0625 -14.921875 C 1.8125 -15.253906 1.457031 -15.519531 1 -15.71875 L 1 -16.21875 L 5.75 -18.296875 L 6.109375 -18.015625 L 6.109375 -13.65625 C 6.660156 -14.957031 7.535156 -16.015625 8.734375 -16.828125 C 9.410156 -17.304688 10.097656 -17.660156 10.796875 -17.890625 C 11.503906 -18.117188 12.289062 -18.234375 13.15625 -18.234375 C 13.78125 -18.234375 14.316406 -18.144531 14.765625 -17.96875 C 15.222656 -17.800781 15.453125 -17.53125 15.453125 -17.15625 C 15.453125 -16.882812 15.363281 -16.5625 15.1875 -16.1875 C 15.007812 -15.820312 14.738281 -15.5 14.375 -15.21875 C 14.019531 -14.945312 13.566406 -14.8125 13.015625 -14.8125 C 12.515625 -14.8125 11.894531 -14.898438 11.15625 -15.078125 C 10.425781 -15.265625 9.488281 -15.535156 8.34375 -15.890625 C 7.882812 -15.503906 7.410156 -14.941406 6.921875 -14.203125 C 6.429688 -13.460938 6.160156 -12.632812 6.109375 -11.71875 L 6.109375 -4.5625 C 6.109375 -3.269531 6.195312 -2.316406 6.375 -1.703125 C 6.5625 -1.097656 6.953125 -0.695312 7.546875 -0.5 L 7.546875 0 Z M 1 0 "/></g></g></g><g fill="#656d4a" fill-opacity="1"><g transform="translate(438.698905, 44.583233)"><g><path d="M 10.71875 0.359375 C 9.539062 0.359375 8.378906 0.1875 7.234375 -0.15625 C 6.097656 -0.507812 5.066406 -1.050781 4.140625 -1.78125 C 3.222656 -2.507812 2.488281 -3.429688 1.9375 -4.546875 C 1.382812 -5.660156 1.109375 -6.984375 1.109375 -8.515625 C 1.109375 -9.984375 1.375 -11.304688 1.90625 -12.484375 C 2.4375 -13.671875 3.15625 -14.691406 4.0625 -15.546875 C 4.96875 -16.398438 5.992188 -17.0625 7.140625 -17.53125 C 8.296875 -18 9.488281 -18.234375 10.71875 -18.234375 C 11.84375 -18.234375 12.960938 -18.0625 14.078125 -17.71875 C 15.191406 -17.382812 16.222656 -16.851562 17.171875 -16.125 C 18.117188 -15.394531 18.875 -14.46875 19.4375 -13.34375 C 20 -12.21875 20.28125 -10.863281 20.28125 -9.28125 C 20.28125 -7.738281 19.984375 -6.367188 19.390625 -5.171875 C 18.804688 -3.972656 18.039062 -2.96875 17.09375 -2.15625 C 16.144531 -1.34375 15.109375 -0.71875 13.984375 -0.28125 C 12.859375 0.144531 11.769531 0.359375 10.71875 0.359375 Z M 4.703125 -11.21875 C 4.703125 -10.164062 4.859375 -9.015625 5.171875 -7.765625 C 5.484375 -6.515625 5.945312 -5.332031 6.5625 -4.21875 C 7.175781 -3.101562 7.9375 -2.191406 8.84375 -1.484375 C 9.75 -0.785156 10.789062 -0.4375 11.96875 -0.4375 C 13.144531 -0.4375 14.070312 -0.734375 14.75 -1.328125 C 15.4375 -1.929688 15.921875 -2.695312 16.203125 -3.625 C 16.492188 -4.5625 16.640625 -5.535156 16.640625 -6.546875 C 16.640625 -7.691406 16.453125 -8.914062 16.078125 -10.21875 C 15.710938 -11.53125 15.1875 -12.757812 14.5 -13.90625 C 13.820312 -15.0625 13.003906 -15.976562 12.046875 -16.65625 C 11.085938 -17.34375 10.03125 -17.628906 8.875 -17.515625 C 7.84375 -17.410156 7.019531 -17.050781 6.40625 -16.4375 C 5.800781 -15.832031 5.363281 -15.066406 5.09375 -14.140625 C 4.832031 -13.222656 4.703125 -12.25 4.703125 -11.21875 Z M 4.703125 -11.21875 "/></g></g></g><g fill="#656d4a" fill-opacity="1"><g transform="translate(460.447641, 44.583233)"><g><path d="M 6.765625 0.359375 C 5.535156 0.359375 4.601562 -0.0546875 3.96875 -0.890625 C 3.332031 -1.734375 3.015625 -3.125 3.015625 -5.0625 L 3.015625 -17.40625 L 0.71875 -17.40625 L 0.71875 -17.96875 L 6.109375 -22.71875 L 6.6875 -22.71875 L 6.6875 -17.96875 L 12.265625 -17.96875 L 12.109375 -17.40625 L 6.6875 -17.40625 L 6.6875 -5.03125 C 6.6875 -3.925781 6.890625 -3.113281 7.296875 -2.59375 C 7.703125 -2.082031 8.300781 -1.828125 9.09375 -1.828125 C 9.5 -1.828125 9.984375 -1.941406 10.546875 -2.171875 C 11.109375 -2.398438 11.691406 -2.882812 12.296875 -3.625 L 12.65625 -3.265625 C 11.695312 -2.171875 10.742188 -1.289062 9.796875 -0.625 C 8.847656 0.03125 7.835938 0.359375 6.765625 0.359375 Z M 6.765625 0.359375 "/></g></g></g><g fill="#656d4a" fill-opacity="1"><g transform="translate(473.245236, 44.583233)"><g><path d="M 6.765625 0.359375 C 5.535156 0.359375 4.601562 -0.0546875 3.96875 -0.890625 C 3.332031 -1.734375 3.015625 -3.125 3.015625 -5.0625 L 3.015625 -17.40625 L 0.71875 -17.40625 L 0.71875 -17.96875 L 6.109375 -22.71875 L 6.6875 -22.71875 L 6.6875 -17.96875 L 12.265625 -17.96875 L 12.109375 -17.40625 L 6.6875 -17.40625 L 6.6875 -5.03125 C 6.6875 -3.925781 6.890625 -3.113281 7.296875 -2.59375 C 7.703125 -2.082031 8.300781 -1.828125 9.09375 -1.828125 C 9.5 -1.828125 9.984375 -1.941406 10.546875 -2.171875 C 11.109375 -2.398438 11.691406 -2.882812 12.296875 -3.625 L 12.65625 -3.265625 C 11.695312 -2.171875 10.742188 -1.289062 9.796875 -0.625 C 8.847656 0.03125 7.835938 0.359375 6.765625 0.359375 Z M 6.765625 0.359375 "/></g></g></g><g fill="#656d4a" fill-opacity="1"><g transform="translate(486.042831, 44.583233)"><g><path d="M 14.734375 0 C 13.773438 0 13.296875 -0.476562 13.296875 -1.4375 L 13.296875 -7.375 C 12.960938 -5.976562 12.457031 -4.691406 11.78125 -3.515625 C 11.113281 -2.347656 10.289062 -1.410156 9.3125 -0.703125 C 8.332031 0.00390625 7.21875 0.359375 5.96875 0.359375 C 4.644531 0.359375 3.5 -0.046875 2.53125 -0.859375 C 1.5625 -1.671875 1.078125 -2.832031 1.078125 -4.34375 C 1.078125 -5.59375 1.453125 -6.609375 2.203125 -7.390625 C 2.960938 -8.171875 3.960938 -8.820312 5.203125 -9.34375 C 6.453125 -9.875 7.820312 -10.34375 9.3125 -10.75 L 13.296875 -11.90625 C 13.273438 -13.675781 12.828125 -14.9375 11.953125 -15.6875 C 11.078125 -16.445312 9.96875 -16.828125 8.625 -16.828125 C 7.625 -16.828125 6.628906 -16.59375 5.640625 -16.125 C 4.660156 -15.65625 3.710938 -14.867188 2.796875 -13.765625 L 2.4375 -14.09375 C 3.445312 -15.34375 4.632812 -16.34375 6 -17.09375 C 7.363281 -17.851562 8.863281 -18.234375 10.5 -18.234375 C 12.675781 -18.234375 14.285156 -17.660156 15.328125 -16.515625 C 16.367188 -15.378906 16.890625 -13.707031 16.890625 -11.5 L 16.890625 -4.5625 C 16.890625 -3.269531 16.976562 -2.316406 17.15625 -1.703125 C 17.34375 -1.097656 17.738281 -0.695312 18.34375 -0.5 L 18.34375 0 Z M 4.421875 -5.609375 C 4.421875 -4.429688 4.773438 -3.578125 5.484375 -3.046875 C 6.191406 -2.523438 6.953125 -2.265625 7.765625 -2.265625 C 8.648438 -2.265625 9.429688 -2.535156 10.109375 -3.078125 C 10.796875 -3.617188 11.375 -4.3125 11.84375 -5.15625 C 12.3125 -6.007812 12.671875 -6.898438 12.921875 -7.828125 C 13.171875 -8.765625 13.296875 -9.644531 13.296875 -10.46875 L 13.296875 -11.390625 L 9.453125 -10.28125 C 9.023438 -10.164062 8.53125 -9.992188 7.96875 -9.765625 C 7.40625 -9.535156 6.851562 -9.238281 6.3125 -8.875 C 5.769531 -8.519531 5.316406 -8.070312 4.953125 -7.53125 C 4.597656 -6.988281 4.421875 -6.347656 4.421875 -5.609375 Z M 4.421875 -5.609375 "/></g></g></g><g fill="#a45400" fill-opacity="1"><g transform="translate(140.27121, 79.965676)"><g><path d="M 1.296875 0 L 1.296875 -0.390625 C 1.753906 -0.535156 2.050781 -0.84375 2.1875 -1.3125 C 2.320312 -1.78125 2.390625 -2.507812 2.390625 -3.5 L 2.390625 -15.78125 C 2.390625 -16.769531 2.320312 -17.5 2.1875 -17.96875 C 2.050781 -18.4375 1.753906 -18.742188 1.296875 -18.890625 L 1.296875 -19.265625 L 7.078125 -19.265625 C 8.648438 -19.265625 9.9375 -19.09375 10.9375 -18.75 C 11.9375 -18.414062 12.71875 -17.976562 13.28125 -17.4375 C 13.84375 -16.894531 14.234375 -16.3125 14.453125 -15.6875 C 14.671875 -15.0625 14.78125 -14.476562 14.78125 -13.9375 C 14.78125 -12.789062 14.492188 -11.734375 13.921875 -10.765625 C 13.359375 -9.796875 12.476562 -9.019531 11.28125 -8.4375 C 10.09375 -7.863281 8.550781 -7.578125 6.65625 -7.578125 L 5.3125 -7.578125 L 5.3125 -3.5 C 5.3125 -2.507812 5.378906 -1.78125 5.515625 -1.3125 C 5.648438 -0.84375 5.953125 -0.535156 6.421875 -0.390625 L 6.421875 0 Z M 5.3125 -8.015625 L 6.53125 -8.015625 C 8.320312 -8.015625 9.625 -8.488281 10.4375 -9.4375 C 11.257812 -10.394531 11.671875 -11.65625 11.671875 -13.21875 C 11.671875 -13.800781 11.585938 -14.414062 11.421875 -15.0625 C 11.253906 -15.71875 10.960938 -16.328125 10.546875 -16.890625 C 10.140625 -17.460938 9.578125 -17.925781 8.859375 -18.28125 C 8.148438 -18.644531 7.253906 -18.828125 6.171875 -18.828125 C 5.859375 -18.828125 5.570312 -18.8125 5.3125 -18.78125 Z M 5.3125 -8.015625 "/></g></g></g><g fill="#a45400" fill-opacity="1"><g transform="translate(155.656538, 79.965676)"><g><path d="M 6.078125 0.21875 C 5.066406 0.21875 4.117188 0.09375 3.234375 -0.15625 C 2.359375 -0.414062 1.65625 -0.722656 1.125 -1.078125 L 0.859375 -4.6875 L 1.125 -4.734375 C 1.71875 -3.410156 2.492188 -2.332031 3.453125 -1.5 C 4.421875 -0.664062 5.519531 -0.238281 6.75 -0.21875 C 7.613281 -0.195312 8.296875 -0.429688 8.796875 -0.921875 C 9.296875 -1.410156 9.546875 -1.96875 9.546875 -2.59375 C 9.546875 -3.46875 9.210938 -4.125 8.546875 -4.5625 C 7.878906 -5.007812 6.945312 -5.414062 5.75 -5.78125 C 4.800781 -6.070312 3.972656 -6.378906 3.265625 -6.703125 C 2.554688 -7.023438 2.015625 -7.4375 1.640625 -7.9375 C 1.265625 -8.445312 1.078125 -9.113281 1.078125 -9.9375 C 1.078125 -10.632812 1.265625 -11.289062 1.640625 -11.90625 C 2.015625 -12.519531 2.59375 -13.015625 3.375 -13.390625 C 4.164062 -13.765625 5.1875 -13.953125 6.4375 -13.953125 C 7.226562 -13.953125 8.007812 -13.890625 8.78125 -13.765625 C 9.550781 -13.640625 10.164062 -13.472656 10.625 -13.265625 L 10.765625 -10.234375 L 10.4375 -10.1875 C 9.976562 -11.15625 9.335938 -11.960938 8.515625 -12.609375 C 7.703125 -13.253906 6.789062 -13.578125 5.78125 -13.578125 C 4.914062 -13.578125 4.222656 -13.375 3.703125 -12.96875 C 3.179688 -12.5625 2.921875 -12.066406 2.921875 -11.484375 C 2.921875 -10.710938 3.253906 -10.117188 3.921875 -9.703125 C 4.585938 -9.285156 5.535156 -8.867188 6.765625 -8.453125 C 7.503906 -8.210938 8.226562 -7.945312 8.9375 -7.65625 C 9.644531 -7.363281 10.226562 -6.953125 10.6875 -6.421875 C 11.15625 -5.898438 11.390625 -5.171875 11.390625 -4.234375 C 11.390625 -3.535156 11.222656 -2.84375 10.890625 -2.15625 C 10.566406 -1.46875 10.019531 -0.898438 9.25 -0.453125 C 8.476562 -0.00390625 7.421875 0.21875 6.078125 0.21875 Z M 6.078125 0.21875 "/></g></g></g><g fill="#a45400" fill-opacity="1"><g transform="translate(167.986823, 79.965676)"><g><path d="M 0.765625 0 L 0.765625 -0.390625 C 1.222656 -0.535156 1.519531 -0.84375 1.65625 -1.3125 C 1.800781 -1.78125 1.875 -2.507812 1.875 -3.5 L 1.875 -9.828125 C 1.875 -10.640625 1.773438 -11.171875 1.578125 -11.421875 C 1.390625 -11.679688 1.117188 -11.882812 0.765625 -12.03125 L 0.765625 -12.421875 L 4.40625 -14.015625 L 4.6875 -13.796875 L 4.6875 -3.5 C 4.6875 -2.507812 4.753906 -1.78125 4.890625 -1.3125 C 5.023438 -0.84375 5.320312 -0.535156 5.78125 -0.390625 L 5.78125 0 Z M 1.234375 -16.828125 C 1.234375 -17.359375 1.414062 -17.804688 1.78125 -18.171875 C 2.15625 -18.535156 2.597656 -18.71875 3.109375 -18.71875 C 3.660156 -18.71875 4.109375 -18.535156 4.453125 -18.171875 C 4.804688 -17.804688 4.984375 -17.359375 4.984375 -16.828125 C 4.984375 -16.304688 4.800781 -15.863281 4.4375 -15.5 C 4.082031 -15.132812 3.640625 -14.953125 3.109375 -14.953125 C 2.597656 -14.953125 2.15625 -15.132812 1.78125 -15.5 C 1.414062 -15.863281 1.234375 -16.304688 1.234375 -16.828125 Z M 1.234375 -16.828125 "/></g></g></g><g fill="#a45400" fill-opacity="1"><g transform="translate(174.592335, 79.965676)"><g><path d="M 7.375 0.28125 C 6.257812 0.28125 5.203125 0.0234375 4.203125 -0.484375 C 3.203125 -1.003906 2.394531 -1.757812 1.78125 -2.75 C 1.164062 -3.738281 0.859375 -4.941406 0.859375 -6.359375 C 0.859375 -7.515625 1.054688 -8.5625 1.453125 -9.5 C 1.859375 -10.4375 2.414062 -11.234375 3.125 -11.890625 C 3.832031 -12.554688 4.628906 -13.066406 5.515625 -13.421875 C 6.410156 -13.773438 7.332031 -13.953125 8.28125 -13.953125 C 9.75 -13.953125 10.941406 -13.785156 11.859375 -13.453125 C 12.785156 -13.128906 13.25 -12.773438 13.25 -12.390625 C 13.25 -12.109375 13.144531 -11.832031 12.9375 -11.5625 C 12.738281 -11.289062 12.492188 -11.0625 12.203125 -10.875 C 11.921875 -10.6875 11.644531 -10.59375 11.375 -10.59375 C 10.988281 -10.59375 10.46875 -10.820312 9.8125 -11.28125 C 9.164062 -11.738281 8.304688 -12.472656 7.234375 -13.484375 C 6.453125 -13.378906 5.757812 -13.0625 5.15625 -12.53125 C 4.5625 -12.007812 4.101562 -11.363281 3.78125 -10.59375 C 3.457031 -9.820312 3.296875 -9 3.296875 -8.125 C 3.296875 -6.925781 3.53125 -5.859375 4 -4.921875 C 4.46875 -3.992188 5.128906 -3.265625 5.984375 -2.734375 C 6.835938 -2.210938 7.84375 -1.953125 9 -1.953125 C 10.03125 -1.953125 10.9375 -2.15625 11.71875 -2.5625 C 12.507812 -2.96875 13.191406 -3.488281 13.765625 -4.125 L 14.015625 -3.859375 C 13.585938 -3.210938 13.0625 -2.570312 12.4375 -1.9375 C 11.820312 -1.300781 11.085938 -0.769531 10.234375 -0.34375 C 9.390625 0.0703125 8.4375 0.28125 7.375 0.28125 Z M 7.375 0.28125 "/></g></g></g><g fill="#a45400" fill-opacity="1"><g transform="translate(188.573847, 79.965676)"><g><path d="M 0.546875 0 L 0.546875 -0.390625 C 1.003906 -0.535156 1.300781 -0.84375 1.4375 -1.3125 C 1.582031 -1.78125 1.65625 -2.507812 1.65625 -3.5 L 1.65625 -18.09375 C 1.65625 -18.894531 1.554688 -19.421875 1.359375 -19.671875 C 1.171875 -19.929688 0.898438 -20.140625 0.546875 -20.296875 L 0.546875 -20.671875 L 4.1875 -22.265625 L 4.453125 -22.046875 L 4.453125 -11.484375 C 5.210938 -12.109375 6.078125 -12.675781 7.046875 -13.1875 C 8.015625 -13.695312 9.035156 -13.953125 10.109375 -13.953125 C 11.367188 -13.953125 12.390625 -13.597656 13.171875 -12.890625 C 13.953125 -12.191406 14.34375 -11.035156 14.34375 -9.421875 L 14.34375 -3.5 C 14.34375 -2.507812 14.410156 -1.78125 14.546875 -1.3125 C 14.679688 -0.84375 14.976562 -0.535156 15.4375 -0.390625 L 15.4375 0 L 10.4375 0 L 10.4375 -0.390625 C 10.894531 -0.535156 11.191406 -0.84375 11.328125 -1.3125 C 11.460938 -1.78125 11.53125 -2.507812 11.53125 -3.5 L 11.53125 -8.921875 C 11.53125 -10.171875 11.269531 -11.140625 10.75 -11.828125 C 10.226562 -12.515625 9.453125 -12.859375 8.421875 -12.859375 C 7.785156 -12.859375 7.15625 -12.703125 6.53125 -12.390625 C 5.90625 -12.078125 5.210938 -11.617188 4.453125 -11.015625 L 4.453125 -3.5 C 4.453125 -2.507812 4.519531 -1.78125 4.65625 -1.3125 C 4.800781 -0.84375 5.101562 -0.535156 5.5625 -0.390625 L 5.5625 0 Z M 0.546875 0 "/></g></g></g><g fill="#a45400" fill-opacity="1"><g transform="translate(204.564681, 79.965676)"><g><path d="M 0.765625 0 L 0.765625 -0.390625 C 1.222656 -0.535156 1.519531 -0.84375 1.65625 -1.3125 C 1.800781 -1.78125 1.875 -2.507812 1.875 -3.5 L 1.875 -9.828125 C 1.875 -10.640625 1.773438 -11.171875 1.578125 -11.421875 C 1.390625 -11.679688 1.117188 -11.882812 0.765625 -12.03125 L 0.765625 -12.421875 L 4.40625 -14.015625 L 4.6875 -13.796875 L 4.6875 -3.5 C 4.6875 -2.507812 4.753906 -1.78125 4.890625 -1.3125 C 5.023438 -0.84375 5.320312 -0.535156 5.78125 -0.390625 L 5.78125 0 Z M 1.234375 -16.828125 C 1.234375 -17.359375 1.414062 -17.804688 1.78125 -18.171875 C 2.15625 -18.535156 2.597656 -18.71875 3.109375 -18.71875 C 3.660156 -18.71875 4.109375 -18.535156 4.453125 -18.171875 C 4.804688 -17.804688 4.984375 -17.359375 4.984375 -16.828125 C 4.984375 -16.304688 4.800781 -15.863281 4.4375 -15.5 C 4.082031 -15.132812 3.640625 -14.953125 3.109375 -14.953125 C 2.597656 -14.953125 2.15625 -15.132812 1.78125 -15.5 C 1.414062 -15.863281 1.234375 -16.304688 1.234375 -16.828125 Z M 1.234375 -16.828125 "/></g></g></g><g fill="#a45400" fill-opacity="1"><g transform="translate(211.170193, 79.965676)"><g><path d="M 11.28125 0 C 10.550781 0 10.1875 -0.363281 10.1875 -1.09375 L 10.1875 -5.640625 C 9.925781 -4.578125 9.539062 -3.59375 9.03125 -2.6875 C 8.519531 -1.789062 7.882812 -1.070312 7.125 -0.53125 C 6.375 0.0078125 5.519531 0.28125 4.5625 0.28125 C 3.5625 0.28125 2.6875 -0.03125 1.9375 -0.65625 C 1.195312 -1.28125 0.828125 -2.171875 0.828125 -3.328125 C 0.828125 -4.285156 1.113281 -5.0625 1.6875 -5.65625 C 2.269531 -6.25 3.035156 -6.75 3.984375 -7.15625 C 4.941406 -7.5625 5.988281 -7.921875 7.125 -8.234375 L 10.1875 -9.109375 C 10.164062 -10.472656 9.820312 -11.441406 9.15625 -12.015625 C 8.488281 -12.597656 7.640625 -12.890625 6.609375 -12.890625 C 5.835938 -12.890625 5.070312 -12.707031 4.3125 -12.34375 C 3.5625 -11.988281 2.835938 -11.390625 2.140625 -10.546875 L 1.875 -10.796875 C 2.644531 -11.742188 3.550781 -12.503906 4.59375 -13.078125 C 5.644531 -13.660156 6.796875 -13.953125 8.046875 -13.953125 C 9.710938 -13.953125 10.941406 -13.515625 11.734375 -12.640625 C 12.535156 -11.773438 12.9375 -10.5 12.9375 -8.8125 L 12.9375 -3.5 C 12.9375 -2.507812 13.003906 -1.78125 13.140625 -1.3125 C 13.285156 -0.84375 13.585938 -0.535156 14.046875 -0.390625 L 14.046875 0 Z M 3.390625 -4.296875 C 3.390625 -3.398438 3.660156 -2.75 4.203125 -2.34375 C 4.742188 -1.9375 5.328125 -1.734375 5.953125 -1.734375 C 6.628906 -1.734375 7.226562 -1.9375 7.75 -2.34375 C 8.269531 -2.757812 8.707031 -3.289062 9.0625 -3.9375 C 9.425781 -4.59375 9.703125 -5.28125 9.890625 -6 C 10.085938 -6.71875 10.1875 -7.390625 10.1875 -8.015625 L 10.1875 -8.734375 L 7.234375 -7.875 C 6.910156 -7.78125 6.53125 -7.644531 6.09375 -7.46875 C 5.664062 -7.300781 5.242188 -7.078125 4.828125 -6.796875 C 4.421875 -6.523438 4.078125 -6.179688 3.796875 -5.765625 C 3.523438 -5.347656 3.390625 -4.859375 3.390625 -4.296875 Z M 3.390625 -4.296875 "/></g></g></g><g fill="#a45400" fill-opacity="1"><g transform="translate(225.757358, 79.965676)"><g><path d="M 5.171875 0.28125 C 4.234375 0.28125 3.519531 -0.0390625 3.03125 -0.6875 C 2.550781 -1.332031 2.3125 -2.394531 2.3125 -3.875 L 2.3125 -13.328125 L 0.546875 -13.328125 L 0.546875 -13.765625 L 4.6875 -17.40625 L 5.125 -17.40625 L 5.125 -13.765625 L 9.390625 -13.765625 L 9.28125 -13.328125 L 5.125 -13.328125 L 5.125 -3.859375 C 5.125 -3.015625 5.28125 -2.394531 5.59375 -2 C 5.90625 -1.601562 6.363281 -1.40625 6.96875 -1.40625 C 7.28125 -1.40625 7.648438 -1.488281 8.078125 -1.65625 C 8.515625 -1.832031 8.960938 -2.207031 9.421875 -2.78125 L 9.6875 -2.5 C 8.957031 -1.65625 8.226562 -0.976562 7.5 -0.46875 C 6.78125 0.03125 6.003906 0.28125 5.171875 0.28125 Z M 5.171875 0.28125 "/></g></g></g><g fill="#a45400" fill-opacity="1"><g transform="translate(235.555527, 79.965676)"><g><path d="M 0.765625 0 L 0.765625 -0.390625 C 1.222656 -0.535156 1.519531 -0.84375 1.65625 -1.3125 C 1.800781 -1.78125 1.875 -2.507812 1.875 -3.5 L 1.875 -9.828125 C 1.875 -10.640625 1.773438 -11.171875 1.578125 -11.421875 C 1.390625 -11.679688 1.117188 -11.882812 0.765625 -12.03125 L 0.765625 -12.421875 L 4.40625 -14.015625 L 4.6875 -13.796875 L 4.6875 -10.46875 C 5.101562 -11.457031 5.769531 -12.265625 6.6875 -12.890625 C 7.207031 -13.253906 7.734375 -13.519531 8.265625 -13.6875 C 8.804688 -13.863281 9.410156 -13.953125 10.078125 -13.953125 C 10.554688 -13.953125 10.96875 -13.890625 11.3125 -13.765625 C 11.664062 -13.640625 11.84375 -13.425781 11.84375 -13.125 C 11.84375 -12.925781 11.769531 -12.679688 11.625 -12.390625 C 11.488281 -12.109375 11.28125 -11.863281 11 -11.65625 C 10.726562 -11.445312 10.382812 -11.34375 9.96875 -11.34375 C 9.582031 -11.34375 9.109375 -11.410156 8.546875 -11.546875 C 7.984375 -11.679688 7.265625 -11.890625 6.390625 -12.171875 C 6.035156 -11.878906 5.671875 -11.445312 5.296875 -10.875 C 4.921875 -10.300781 4.71875 -9.664062 4.6875 -8.96875 L 4.6875 -3.5 C 4.6875 -2.507812 4.753906 -1.78125 4.890625 -1.3125 C 5.023438 -0.84375 5.320312 -0.535156 5.78125 -0.390625 L 5.78125 0 Z M 0.765625 0 "/></g></g></g><g fill="#a45400" fill-opacity="1"><g transform="translate(246.233967, 79.965676)"><g><path d="M 11.28125 0 C 10.550781 0 10.1875 -0.363281 10.1875 -1.09375 L 10.1875 -5.640625 C 9.925781 -4.578125 9.539062 -3.59375 9.03125 -2.6875 C 8.519531 -1.789062 7.882812 -1.070312 7.125 -0.53125 C 6.375 0.0078125 5.519531 0.28125 4.5625 0.28125 C 3.5625 0.28125 2.6875 -0.03125 1.9375 -0.65625 C 1.195312 -1.28125 0.828125 -2.171875 0.828125 -3.328125 C 0.828125 -4.285156 1.113281 -5.0625 1.6875 -5.65625 C 2.269531 -6.25 3.035156 -6.75 3.984375 -7.15625 C 4.941406 -7.5625 5.988281 -7.921875 7.125 -8.234375 L 10.1875 -9.109375 C 10.164062 -10.472656 9.820312 -11.441406 9.15625 -12.015625 C 8.488281 -12.597656 7.640625 -12.890625 6.609375 -12.890625 C 5.835938 -12.890625 5.070312 -12.707031 4.3125 -12.34375 C 3.5625 -11.988281 2.835938 -11.390625 2.140625 -10.546875 L 1.875 -10.796875 C 2.644531 -11.742188 3.550781 -12.503906 4.59375 -13.078125 C 5.644531 -13.660156 6.796875 -13.953125 8.046875 -13.953125 C 9.710938 -13.953125 10.941406 -13.515625 11.734375 -12.640625 C 12.535156 -11.773438 12.9375 -10.5 12.9375 -8.8125 L 12.9375 -3.5 C 12.9375 -2.507812 13.003906 -1.78125 13.140625 -1.3125 C 13.285156 -0.84375 13.585938 -0.535156 14.046875 -0.390625 L 14.046875 0 Z M 3.390625 -4.296875 C 3.390625 -3.398438 3.660156 -2.75 4.203125 -2.34375 C 4.742188 -1.9375 5.328125 -1.734375 5.953125 -1.734375 C 6.628906 -1.734375 7.226562 -1.9375 7.75 -2.34375 C 8.269531 -2.757812 8.707031 -3.289062 9.0625 -3.9375 C 9.425781 -4.59375 9.703125 -5.28125 9.890625 -6 C 10.085938 -6.71875 10.1875 -7.390625 10.1875 -8.015625 L 10.1875 -8.734375 L 7.234375 -7.875 C 6.910156 -7.78125 6.53125 -7.644531 6.09375 -7.46875 C 5.664062 -7.300781 5.242188 -7.078125 4.828125 -6.796875 C 4.421875 -6.523438 4.078125 -6.179688 3.796875 -5.765625 C 3.523438 -5.347656 3.390625 -4.859375 3.390625 -4.296875 Z M 3.390625 -4.296875 "/></g></g></g><g fill="#a45400" fill-opacity="1"><g transform="translate(260.821132, 79.965676)"><g/></g></g><g fill="#a45400" fill-opacity="1"><g transform="translate(266.325728, 79.965676)"><g><path d="M 1.4375 -6.640625 L 1.4375 -7.078125 L 8.625 -7.078125 L 8.625 -6.640625 Z M 1.4375 -6.640625 "/></g></g></g><g fill="#a45400" fill-opacity="1"><g transform="translate(276.371602, 79.965676)"><g/></g></g><g fill="#a45400" fill-opacity="1"><g transform="translate(281.876198, 79.965676)"><g><path d="M 1.296875 0 L 1.296875 -0.390625 C 1.753906 -0.535156 2.050781 -0.84375 2.1875 -1.3125 C 2.320312 -1.78125 2.390625 -2.507812 2.390625 -3.5 L 2.390625 -15.78125 C 2.390625 -16.769531 2.320312 -17.5 2.1875 -17.96875 C 2.050781 -18.4375 1.753906 -18.742188 1.296875 -18.890625 L 1.296875 -19.265625 L 7.078125 -19.265625 C 8.648438 -19.265625 9.9375 -19.09375 10.9375 -18.75 C 11.9375 -18.414062 12.71875 -17.976562 13.28125 -17.4375 C 13.84375 -16.894531 14.234375 -16.3125 14.453125 -15.6875 C 14.671875 -15.0625 14.78125 -14.476562 14.78125 -13.9375 C 14.78125 -12.789062 14.492188 -11.734375 13.921875 -10.765625 C 13.359375 -9.796875 12.476562 -9.019531 11.28125 -8.4375 C 10.09375 -7.863281 8.550781 -7.578125 6.65625 -7.578125 L 5.3125 -7.578125 L 5.3125 -3.5 C 5.3125 -2.507812 5.378906 -1.78125 5.515625 -1.3125 C 5.648438 -0.84375 5.953125 -0.535156 6.421875 -0.390625 L 6.421875 0 Z M 5.3125 -8.015625 L 6.53125 -8.015625 C 8.320312 -8.015625 9.625 -8.488281 10.4375 -9.4375 C 11.257812 -10.394531 11.671875 -11.65625 11.671875 -13.21875 C 11.671875 -13.800781 11.585938 -14.414062 11.421875 -15.0625 C 11.253906 -15.71875 10.960938 -16.328125 10.546875 -16.890625 C 10.140625 -17.460938 9.578125 -17.925781 8.859375 -18.28125 C 8.148438 -18.644531 7.253906 -18.828125 6.171875 -18.828125 C 5.859375 -18.828125 5.570312 -18.8125 5.3125 -18.78125 Z M 5.3125 -8.015625 "/></g></g></g><g fill="#a45400" fill-opacity="1"><g transform="translate(297.261527, 79.965676)"><g><path d="M 6.078125 0.21875 C 5.066406 0.21875 4.117188 0.09375 3.234375 -0.15625 C 2.359375 -0.414062 1.65625 -0.722656 1.125 -1.078125 L 0.859375 -4.6875 L 1.125 -4.734375 C 1.71875 -3.410156 2.492188 -2.332031 3.453125 -1.5 C 4.421875 -0.664062 5.519531 -0.238281 6.75 -0.21875 C 7.613281 -0.195312 8.296875 -0.429688 8.796875 -0.921875 C 9.296875 -1.410156 9.546875 -1.96875 9.546875 -2.59375 C 9.546875 -3.46875 9.210938 -4.125 8.546875 -4.5625 C 7.878906 -5.007812 6.945312 -5.414062 5.75 -5.78125 C 4.800781 -6.070312 3.972656 -6.378906 3.265625 -6.703125 C 2.554688 -7.023438 2.015625 -7.4375 1.640625 -7.9375 C 1.265625 -8.445312 1.078125 -9.113281 1.078125 -9.9375 C 1.078125 -10.632812 1.265625 -11.289062 1.640625 -11.90625 C 2.015625 -12.519531 2.59375 -13.015625 3.375 -13.390625 C 4.164062 -13.765625 5.1875 -13.953125 6.4375 -13.953125 C 7.226562 -13.953125 8.007812 -13.890625 8.78125 -13.765625 C 9.550781 -13.640625 10.164062 -13.472656 10.625 -13.265625 L 10.765625 -10.234375 L 10.4375 -10.1875 C 9.976562 -11.15625 9.335938 -11.960938 8.515625 -12.609375 C 7.703125 -13.253906 6.789062 -13.578125 5.78125 -13.578125 C 4.914062 -13.578125 4.222656 -13.375 3.703125 -12.96875 C 3.179688 -12.5625 2.921875 -12.066406 2.921875 -11.484375 C 2.921875 -10.710938 3.253906 -10.117188 3.921875 -9.703125 C 4.585938 -9.285156 5.535156 -8.867188 6.765625 -8.453125 C 7.503906 -8.210938 8.226562 -7.945312 8.9375 -7.65625 C 9.644531 -7.363281 10.226562 -6.953125 10.6875 -6.421875 C 11.15625 -5.898438 11.390625 -5.171875 11.390625 -4.234375 C 11.390625 -3.535156 11.222656 -2.84375 10.890625 -2.15625 C 10.566406 -1.46875 10.019531 -0.898438 9.25 -0.453125 C 8.476562 -0.00390625 7.421875 0.21875 6.078125 0.21875 Z M 6.078125 0.21875 "/></g></g></g><g fill="#a45400" fill-opacity="1"><g transform="translate(309.591811, 79.965676)"><g><path d="M 0.765625 0 L 0.765625 -0.390625 C 1.222656 -0.535156 1.519531 -0.84375 1.65625 -1.3125 C 1.800781 -1.78125 1.875 -2.507812 1.875 -3.5 L 1.875 -9.828125 C 1.875 -10.640625 1.773438 -11.171875 1.578125 -11.421875 C 1.390625 -11.679688 1.117188 -11.882812 0.765625 -12.03125 L 0.765625 -12.421875 L 4.40625 -14.015625 L 4.6875 -13.796875 L 4.6875 -3.5 C 4.6875 -2.507812 4.753906 -1.78125 4.890625 -1.3125 C 5.023438 -0.84375 5.320312 -0.535156 5.78125 -0.390625 L 5.78125 0 Z M 1.234375 -16.828125 C 1.234375 -17.359375 1.414062 -17.804688 1.78125 -18.171875 C 2.15625 -18.535156 2.597656 -18.71875 3.109375 -18.71875 C 3.660156 -18.71875 4.109375 -18.535156 4.453125 -18.171875 C 4.804688 -17.804688 4.984375 -17.359375 4.984375 -16.828125 C 4.984375 -16.304688 4.800781 -15.863281 4.4375 -15.5 C 4.082031 -15.132812 3.640625 -14.953125 3.109375 -14.953125 C 2.597656 -14.953125 2.15625 -15.132812 1.78125 -15.5 C 1.414062 -15.863281 1.234375 -16.304688 1.234375 -16.828125 Z M 1.234375 -16.828125 "/></g></g></g><g fill="#a45400" fill-opacity="1"><g transform="translate(316.197324, 79.965676)"><g><path d="M 7.375 0.28125 C 6.257812 0.28125 5.203125 0.0234375 4.203125 -0.484375 C 3.203125 -1.003906 2.394531 -1.757812 1.78125 -2.75 C 1.164062 -3.738281 0.859375 -4.941406 0.859375 -6.359375 C 0.859375 -7.515625 1.054688 -8.5625 1.453125 -9.5 C 1.859375 -10.4375 2.414062 -11.234375 3.125 -11.890625 C 3.832031 -12.554688 4.628906 -13.066406 5.515625 -13.421875 C 6.410156 -13.773438 7.332031 -13.953125 8.28125 -13.953125 C 9.75 -13.953125 10.941406 -13.785156 11.859375 -13.453125 C 12.785156 -13.128906 13.25 -12.773438 13.25 -12.390625 C 13.25 -12.109375 13.144531 -11.832031 12.9375 -11.5625 C 12.738281 -11.289062 12.492188 -11.0625 12.203125 -10.875 C 11.921875 -10.6875 11.644531 -10.59375 11.375 -10.59375 C 10.988281 -10.59375 10.46875 -10.820312 9.8125 -11.28125 C 9.164062 -11.738281 8.304688 -12.472656 7.234375 -13.484375 C 6.453125 -13.378906 5.757812 -13.0625 5.15625 -12.53125 C 4.5625 -12.007812 4.101562 -11.363281 3.78125 -10.59375 C 3.457031 -9.820312 3.296875 -9 3.296875 -8.125 C 3.296875 -6.925781 3.53125 -5.859375 4 -4.921875 C 4.46875 -3.992188 5.128906 -3.265625 5.984375 -2.734375 C 6.835938 -2.210938 7.84375 -1.953125 9 -1.953125 C 10.03125 -1.953125 10.9375 -2.15625 11.71875 -2.5625 C 12.507812 -2.96875 13.191406 -3.488281 13.765625 -4.125 L 14.015625 -3.859375 C 13.585938 -3.210938 13.0625 -2.570312 12.4375 -1.9375 C 11.820312 -1.300781 11.085938 -0.769531 10.234375 -0.34375 C 9.390625 0.0703125 8.4375 0.28125 7.375 0.28125 Z M 7.375 0.28125 "/></g></g></g><g fill="#a45400" fill-opacity="1"><g transform="translate(330.454138, 79.965676)"><g><path d="M 8.203125 0.28125 C 7.304688 0.28125 6.421875 0.148438 5.546875 -0.109375 C 4.671875 -0.378906 3.878906 -0.796875 3.171875 -1.359375 C 2.472656 -1.921875 1.910156 -2.628906 1.484375 -3.484375 C 1.066406 -4.335938 0.859375 -5.351562 0.859375 -6.53125 C 0.859375 -7.644531 1.054688 -8.65625 1.453125 -9.5625 C 1.859375 -10.476562 2.410156 -11.257812 3.109375 -11.90625 C 3.804688 -12.5625 4.59375 -13.066406 5.46875 -13.421875 C 6.351562 -13.773438 7.265625 -13.953125 8.203125 -13.953125 C 9.066406 -13.953125 9.925781 -13.820312 10.78125 -13.5625 C 11.632812 -13.3125 12.421875 -12.90625 13.140625 -12.34375 C 13.867188 -11.789062 14.445312 -11.082031 14.875 -10.21875 C 15.3125 -9.351562 15.53125 -8.316406 15.53125 -7.109375 C 15.53125 -5.929688 15.300781 -4.882812 14.84375 -3.96875 C 14.394531 -3.050781 13.804688 -2.28125 13.078125 -1.65625 C 12.359375 -1.03125 11.566406 -0.550781 10.703125 -0.21875 C 9.847656 0.113281 9.015625 0.28125 8.203125 0.28125 Z M 3.609375 -8.59375 C 3.609375 -7.78125 3.726562 -6.894531 3.96875 -5.9375 C 4.207031 -4.988281 4.554688 -4.085938 5.015625 -3.234375 C 5.484375 -2.378906 6.066406 -1.679688 6.765625 -1.140625 C 7.460938 -0.597656 8.265625 -0.328125 9.171875 -0.328125 C 10.066406 -0.328125 10.773438 -0.554688 11.296875 -1.015625 C 11.828125 -1.472656 12.203125 -2.0625 12.421875 -2.78125 C 12.640625 -3.5 12.75 -4.242188 12.75 -5.015625 C 12.75 -5.890625 12.601562 -6.828125 12.3125 -7.828125 C 12.03125 -8.828125 11.628906 -9.765625 11.109375 -10.640625 C 10.585938 -11.523438 9.957031 -12.226562 9.21875 -12.75 C 8.488281 -13.28125 7.679688 -13.5 6.796875 -13.40625 C 6.003906 -13.332031 5.375 -13.0625 4.90625 -12.59375 C 4.445312 -12.125 4.113281 -11.535156 3.90625 -10.828125 C 3.707031 -10.128906 3.609375 -9.382812 3.609375 -8.59375 Z M 3.609375 -8.59375 "/></g></g></g><g fill="#a45400" fill-opacity="1"><g transform="translate(347.105525, 79.965676)"><g><path d="M 5.171875 0.28125 C 4.234375 0.28125 3.519531 -0.0390625 3.03125 -0.6875 C 2.550781 -1.332031 2.3125 -2.394531 2.3125 -3.875 L 2.3125 -13.328125 L 0.546875 -13.328125 L 0.546875 -13.765625 L 4.6875 -17.40625 L 5.125 -17.40625 L 5.125 -13.765625 L 9.390625 -13.765625 L 9.28125 -13.328125 L 5.125 -13.328125 L 5.125 -3.859375 C 5.125 -3.015625 5.28125 -2.394531 5.59375 -2 C 5.90625 -1.601562 6.363281 -1.40625 6.96875 -1.40625 C 7.28125 -1.40625 7.648438 -1.488281 8.078125 -1.65625 C 8.515625 -1.832031 8.960938 -2.207031 9.421875 -2.78125 L 9.6875 -2.5 C 8.957031 -1.65625 8.226562 -0.976562 7.5 -0.46875 C 6.78125 0.03125 6.003906 0.28125 5.171875 0.28125 Z M 5.171875 0.28125 "/></g></g></g><g fill="#a45400" fill-opacity="1"><g transform="translate(356.573332, 79.965676)"><g><path d="M 7.375 0.28125 C 6.601562 0.28125 5.835938 0.144531 5.078125 -0.125 C 4.316406 -0.40625 3.613281 -0.820312 2.96875 -1.375 C 2.332031 -1.925781 1.820312 -2.613281 1.4375 -3.4375 C 1.050781 -4.269531 0.859375 -5.242188 0.859375 -6.359375 C 0.859375 -7.535156 1.0625 -8.59375 1.46875 -9.53125 C 1.882812 -10.46875 2.441406 -11.265625 3.140625 -11.921875 C 3.835938 -12.578125 4.613281 -13.078125 5.46875 -13.421875 C 6.320312 -13.773438 7.195312 -13.953125 8.09375 -13.953125 C 9.34375 -13.953125 10.390625 -13.703125 11.234375 -13.203125 C 12.078125 -12.710938 12.710938 -12.09375 13.140625 -11.34375 C 13.578125 -10.59375 13.796875 -9.8125 13.796875 -9 L 3.359375 -9 C 3.335938 -8.851562 3.320312 -8.707031 3.3125 -8.5625 C 3.300781 -8.414062 3.296875 -8.269531 3.296875 -8.125 C 3.296875 -6.925781 3.53125 -5.859375 4 -4.921875 C 4.46875 -3.992188 5.128906 -3.265625 5.984375 -2.734375 C 6.835938 -2.210938 7.84375 -1.953125 9 -1.953125 C 10.03125 -1.953125 10.9375 -2.15625 11.71875 -2.5625 C 12.507812 -2.96875 13.191406 -3.488281 13.765625 -4.125 L 14.015625 -3.859375 C 13.585938 -3.210938 13.0625 -2.570312 12.4375 -1.9375 C 11.820312 -1.300781 11.085938 -0.769531 10.234375 -0.34375 C 9.390625 0.0703125 8.4375 0.28125 7.375 0.28125 Z M 3.390625 -9.390625 L 11.015625 -9.390625 C 10.898438 -10.140625 10.664062 -10.820312 10.3125 -11.4375 C 9.957031 -12.050781 9.515625 -12.539062 8.984375 -12.90625 C 8.460938 -13.28125 7.878906 -13.46875 7.234375 -13.46875 C 6.460938 -13.476562 5.8125 -13.289062 5.28125 -12.90625 C 4.75 -12.519531 4.328125 -12.015625 4.015625 -11.390625 C 3.703125 -10.773438 3.492188 -10.109375 3.390625 -9.390625 Z M 3.390625 -9.390625 "/></g></g></g><g fill="#a45400" fill-opacity="1"><g transform="translate(371.27059, 79.965676)"><g><path d="M 0.765625 0 L 0.765625 -0.390625 C 1.222656 -0.535156 1.519531 -0.84375 1.65625 -1.3125 C 1.800781 -1.78125 1.875 -2.507812 1.875 -3.5 L 1.875 -9.828125 C 1.875 -10.640625 1.773438 -11.171875 1.578125 -11.421875 C 1.390625 -11.679688 1.117188 -11.882812 0.765625 -12.03125 L 0.765625 -12.421875 L 4.40625 -14.015625 L 4.6875 -13.796875 L 4.6875 -10.46875 C 5.101562 -11.457031 5.769531 -12.265625 6.6875 -12.890625 C 7.207031 -13.253906 7.734375 -13.519531 8.265625 -13.6875 C 8.804688 -13.863281 9.410156 -13.953125 10.078125 -13.953125 C 10.554688 -13.953125 10.96875 -13.890625 11.3125 -13.765625 C 11.664062 -13.640625 11.84375 -13.425781 11.84375 -13.125 C 11.84375 -12.925781 11.769531 -12.679688 11.625 -12.390625 C 11.488281 -12.109375 11.28125 -11.863281 11 -11.65625 C 10.726562 -11.445312 10.382812 -11.34375 9.96875 -11.34375 C 9.582031 -11.34375 9.109375 -11.410156 8.546875 -11.546875 C 7.984375 -11.679688 7.265625 -11.890625 6.390625 -12.171875 C 6.035156 -11.878906 5.671875 -11.445312 5.296875 -10.875 C 4.921875 -10.300781 4.71875 -9.664062 4.6875 -8.96875 L 4.6875 -3.5 C 4.6875 -2.507812 4.753906 -1.78125 4.890625 -1.3125 C 5.023438 -0.84375 5.320312 -0.535156 5.78125 -0.390625 L 5.78125 0 Z M 0.765625 0 "/></g></g></g><g fill="#a45400" fill-opacity="1"><g transform="translate(381.94902, 79.965676)"><g><path d="M 11.28125 0 C 10.550781 0 10.1875 -0.363281 10.1875 -1.09375 L 10.1875 -5.640625 C 9.925781 -4.578125 9.539062 -3.59375 9.03125 -2.6875 C 8.519531 -1.789062 7.882812 -1.070312 7.125 -0.53125 C 6.375 0.0078125 5.519531 0.28125 4.5625 0.28125 C 3.5625 0.28125 2.6875 -0.03125 1.9375 -0.65625 C 1.195312 -1.28125 0.828125 -2.171875 0.828125 -3.328125 C 0.828125 -4.285156 1.113281 -5.0625 1.6875 -5.65625 C 2.269531 -6.25 3.035156 -6.75 3.984375 -7.15625 C 4.941406 -7.5625 5.988281 -7.921875 7.125 -8.234375 L 10.1875 -9.109375 C 10.164062 -10.472656 9.820312 -11.441406 9.15625 -12.015625 C 8.488281 -12.597656 7.640625 -12.890625 6.609375 -12.890625 C 5.835938 -12.890625 5.070312 -12.707031 4.3125 -12.34375 C 3.5625 -11.988281 2.835938 -11.390625 2.140625 -10.546875 L 1.875 -10.796875 C 2.644531 -11.742188 3.550781 -12.503906 4.59375 -13.078125 C 5.644531 -13.660156 6.796875 -13.953125 8.046875 -13.953125 C 9.710938 -13.953125 10.941406 -13.515625 11.734375 -12.640625 C 12.535156 -11.773438 12.9375 -10.5 12.9375 -8.8125 L 12.9375 -3.5 C 12.9375 -2.507812 13.003906 -1.78125 13.140625 -1.3125 C 13.285156 -0.84375 13.585938 -0.535156 14.046875 -0.390625 L 14.046875 0 Z M 3.390625 -4.296875 C 3.390625 -3.398438 3.660156 -2.75 4.203125 -2.34375 C 4.742188 -1.9375 5.328125 -1.734375 5.953125 -1.734375 C 6.628906 -1.734375 7.226562 -1.9375 7.75 -2.34375 C 8.269531 -2.757812 8.707031 -3.289062 9.0625 -3.9375 C 9.425781 -4.59375 9.703125 -5.28125 9.890625 -6 C 10.085938 -6.71875 10.1875 -7.390625 10.1875 -8.015625 L 10.1875 -8.734375 L 7.234375 -7.875 C 6.910156 -7.78125 6.53125 -7.644531 6.09375 -7.46875 C 5.664062 -7.300781 5.242188 -7.078125 4.828125 -6.796875 C 4.421875 -6.523438 4.078125 -6.179688 3.796875 -5.765625 C 3.523438 -5.347656 3.390625 -4.859375 3.390625 -4.296875 Z M 3.390625 -4.296875 "/></g></g></g><g fill="#a45400" fill-opacity="1"><g transform="translate(396.536184, 79.965676)"><g><path d="M 8.265625 0.25 C 7.640625 0.25 7.035156 0.164062 6.453125 0 C 5.878906 -0.164062 5.351562 -0.382812 4.875 -0.65625 L 4.875 3.9375 C 4.875 4.925781 4.941406 5.65625 5.078125 6.125 C 5.210938 6.59375 5.507812 6.898438 5.96875 7.046875 L 5.96875 7.4375 L 0.96875 7.4375 L 0.96875 7.046875 C 1.425781 6.898438 1.722656 6.59375 1.859375 6.125 C 1.992188 5.65625 2.0625 4.925781 2.0625 3.9375 L 2.0625 -9.828125 C 2.0625 -10.640625 1.960938 -11.171875 1.765625 -11.421875 C 1.578125 -11.679688 1.3125 -11.882812 0.96875 -12.03125 L 0.96875 -12.421875 L 4.59375 -14.015625 L 4.875 -13.796875 L 4.875 -12 C 5.601562 -12.519531 6.40625 -12.972656 7.28125 -13.359375 C 8.15625 -13.753906 9.066406 -13.953125 10.015625 -13.953125 C 11.160156 -13.953125 12.148438 -13.660156 12.984375 -13.078125 C 13.816406 -12.503906 14.460938 -11.71875 14.921875 -10.71875 C 15.378906 -9.71875 15.609375 -8.585938 15.609375 -7.328125 C 15.609375 -5.929688 15.3125 -4.660156 14.71875 -3.515625 C 14.125 -2.367188 13.273438 -1.453125 12.171875 -0.765625 C 11.066406 -0.0859375 9.765625 0.25 8.265625 0.25 Z M 4.875 -4.59375 C 4.875 -4.113281 5.007812 -3.625 5.28125 -3.125 C 5.5625 -2.625 5.921875 -2.15625 6.359375 -1.71875 C 6.796875 -1.289062 7.273438 -0.941406 7.796875 -0.671875 C 8.328125 -0.410156 8.847656 -0.28125 9.359375 -0.28125 C 10.347656 -0.28125 11.109375 -0.515625 11.640625 -0.984375 C 12.171875 -1.460938 12.53125 -2.082031 12.71875 -2.84375 C 12.914062 -3.601562 13.015625 -4.398438 13.015625 -5.234375 C 13.015625 -5.722656 12.972656 -6.296875 12.890625 -6.953125 C 12.816406 -7.617188 12.675781 -8.289062 12.46875 -8.96875 C 12.269531 -9.65625 11.984375 -10.289062 11.609375 -10.875 C 11.234375 -11.457031 10.757812 -11.925781 10.1875 -12.28125 C 9.613281 -12.644531 8.914062 -12.828125 8.09375 -12.828125 C 7.488281 -12.828125 6.921875 -12.703125 6.390625 -12.453125 C 5.859375 -12.210938 5.351562 -11.90625 4.875 -11.53125 Z M 4.875 -4.59375 "/></g></g></g><g fill="#a45400" fill-opacity="1"><g transform="translate(412.994832, 79.965676)"><g><path d="M 7.375 0.28125 C 6.601562 0.28125 5.835938 0.144531 5.078125 -0.125 C 4.316406 -0.40625 3.613281 -0.820312 2.96875 -1.375 C 2.332031 -1.925781 1.820312 -2.613281 1.4375 -3.4375 C 1.050781 -4.269531 0.859375 -5.242188 0.859375 -6.359375 C 0.859375 -7.535156 1.0625 -8.59375 1.46875 -9.53125 C 1.882812 -10.46875 2.441406 -11.265625 3.140625 -11.921875 C 3.835938 -12.578125 4.613281 -13.078125 5.46875 -13.421875 C 6.320312 -13.773438 7.195312 -13.953125 8.09375 -13.953125 C 9.34375 -13.953125 10.390625 -13.703125 11.234375 -13.203125 C 12.078125 -12.710938 12.710938 -12.09375 13.140625 -11.34375 C 13.578125 -10.59375 13.796875 -9.8125 13.796875 -9 L 3.359375 -9 C 3.335938 -8.851562 3.320312 -8.707031 3.3125 -8.5625 C 3.300781 -8.414062 3.296875 -8.269531 3.296875 -8.125 C 3.296875 -6.925781 3.53125 -5.859375 4 -4.921875 C 4.46875 -3.992188 5.128906 -3.265625 5.984375 -2.734375 C 6.835938 -2.210938 7.84375 -1.953125 9 -1.953125 C 10.03125 -1.953125 10.9375 -2.15625 11.71875 -2.5625 C 12.507812 -2.96875 13.191406 -3.488281 13.765625 -4.125 L 14.015625 -3.859375 C 13.585938 -3.210938 13.0625 -2.570312 12.4375 -1.9375 C 11.820312 -1.300781 11.085938 -0.769531 10.234375 -0.34375 C 9.390625 0.0703125 8.4375 0.28125 7.375 0.28125 Z M 3.390625 -9.390625 L 11.015625 -9.390625 C 10.898438 -10.140625 10.664062 -10.820312 10.3125 -11.4375 C 9.957031 -12.050781 9.515625 -12.539062 8.984375 -12.90625 C 8.460938 -13.28125 7.878906 -13.46875 7.234375 -13.46875 C 6.460938 -13.476562 5.8125 -13.289062 5.28125 -12.90625 C 4.75 -12.519531 4.328125 -12.015625 4.015625 -11.390625 C 3.703125 -10.773438 3.492188 -10.109375 3.390625 -9.390625 Z M 3.390625 -9.390625 "/></g></g></g><g fill="#a45400" fill-opacity="1"><g transform="translate(427.692091, 79.965676)"><g><path d="M 5.78125 0.28125 C 4.332031 0.28125 3.28125 -0.160156 2.625 -1.046875 C 1.976562 -1.929688 1.65625 -3.207031 1.65625 -4.875 L 1.65625 -9.828125 C 1.65625 -10.640625 1.554688 -11.171875 1.359375 -11.421875 C 1.171875 -11.679688 0.898438 -11.882812 0.546875 -12.03125 L 0.546875 -12.421875 L 4.1875 -14.015625 L 4.453125 -13.796875 L 4.453125 -5.234375 C 4.453125 -3.765625 4.617188 -2.660156 4.953125 -1.921875 C 5.285156 -1.191406 5.984375 -0.828125 7.046875 -0.828125 C 7.671875 -0.828125 8.3125 -1.003906 8.96875 -1.359375 C 9.632812 -1.722656 10.304688 -2.242188 10.984375 -2.921875 L 10.984375 -9.828125 C 10.984375 -10.640625 10.882812 -11.171875 10.6875 -11.421875 C 10.5 -11.679688 10.234375 -11.882812 9.890625 -12.03125 L 9.890625 -12.421875 L 13.515625 -14.015625 L 13.796875 -13.796875 L 13.796875 -3.5 C 13.796875 -2.507812 13.863281 -1.78125 14 -1.3125 C 14.132812 -0.84375 14.429688 -0.535156 14.890625 -0.390625 L 14.890625 0 L 12.09375 0 C 11.351562 0 10.984375 -0.363281 10.984375 -1.09375 L 10.984375 -2.34375 C 10.191406 -1.59375 9.34375 -0.96875 8.4375 -0.46875 C 7.53125 0.03125 6.644531 0.28125 5.78125 0.28125 Z M 5.78125 0.28125 "/></g></g></g><g fill="#a45400" fill-opacity="1"><g transform="translate(443.40769, 79.965676)"><g><path d="M 5.171875 0.28125 C 4.234375 0.28125 3.519531 -0.0390625 3.03125 -0.6875 C 2.550781 -1.332031 2.3125 -2.394531 2.3125 -3.875 L 2.3125 -13.328125 L 0.546875 -13.328125 L 0.546875 -13.765625 L 4.6875 -17.40625 L 5.125 -17.40625 L 5.125 -13.765625 L 9.390625 -13.765625 L 9.28125 -13.328125 L 5.125 -13.328125 L 5.125 -3.859375 C 5.125 -3.015625 5.28125 -2.394531 5.59375 -2 C 5.90625 -1.601562 6.363281 -1.40625 6.96875 -1.40625 C 7.28125 -1.40625 7.648438 -1.488281 8.078125 -1.65625 C 8.515625 -1.832031 8.960938 -2.207031 9.421875 -2.78125 L 9.6875 -2.5 C 8.957031 -1.65625 8.226562 -0.976562 7.5 -0.46875 C 6.78125 0.03125 6.003906 0.28125 5.171875 0.28125 Z M 5.171875 0.28125 "/></g></g></g><g fill="#a45400" fill-opacity="1"><g transform="translate(453.205848, 79.965676)"><g><path d="M 11.28125 0 C 10.550781 0 10.1875 -0.363281 10.1875 -1.09375 L 10.1875 -5.640625 C 9.925781 -4.578125 9.539062 -3.59375 9.03125 -2.6875 C 8.519531 -1.789062 7.882812 -1.070312 7.125 -0.53125 C 6.375 0.0078125 5.519531 0.28125 4.5625 0.28125 C 3.5625 0.28125 2.6875 -0.03125 1.9375 -0.65625 C 1.195312 -1.28125 0.828125 -2.171875 0.828125 -3.328125 C 0.828125 -4.285156 1.113281 -5.0625 1.6875 -5.65625 C 2.269531 -6.25 3.035156 -6.75 3.984375 -7.15625 C 4.941406 -7.5625 5.988281 -7.921875 7.125 -8.234375 L 10.1875 -9.109375 C 10.164062 -10.472656 9.820312 -11.441406 9.15625 -12.015625 C 8.488281 -12.597656 7.640625 -12.890625 6.609375 -12.890625 C 5.835938 -12.890625 5.070312 -12.707031 4.3125 -12.34375 C 3.5625 -11.988281 2.835938 -11.390625 2.140625 -10.546875 L 1.875 -10.796875 C 2.644531 -11.742188 3.550781 -12.503906 4.59375 -13.078125 C 5.644531 -13.660156 6.796875 -13.953125 8.046875 -13.953125 C 9.710938 -13.953125 10.941406 -13.515625 11.734375 -12.640625 C 12.535156 -11.773438 12.9375 -10.5 12.9375 -8.8125 L 12.9375 -3.5 C 12.9375 -2.507812 13.003906 -1.78125 13.140625 -1.3125 C 13.285156 -0.84375 13.585938 -0.535156 14.046875 -0.390625 L 14.046875 0 Z M 3.390625 -4.296875 C 3.390625 -3.398438 3.660156 -2.75 4.203125 -2.34375 C 4.742188 -1.9375 5.328125 -1.734375 5.953125 -1.734375 C 6.628906 -1.734375 7.226562 -1.9375 7.75 -2.34375 C 8.269531 -2.757812 8.707031 -3.289062 9.0625 -3.9375 C 9.425781 -4.59375 9.703125 -5.28125 9.890625 -6 C 10.085938 -6.71875 10.1875 -7.390625 10.1875 -8.015625 L 10.1875 -8.734375 L 7.234375 -7.875 C 6.910156 -7.78125 6.53125 -7.644531 6.09375 -7.46875 C 5.664062 -7.300781 5.242188 -7.078125 4.828125 -6.796875 C 4.421875 -6.523438 4.078125 -6.179688 3.796875 -5.765625 C 3.523438 -5.347656 3.390625 -4.859375 3.390625 -4.296875 Z M 3.390625 -4.296875 "/></g></g></g></svg>